<mxfile host="app.diagrams.net" modified="2020-10-24T15:18:57.433Z" agent="5.0 (Windows NT 10.0; Win64; x64) AppleWebKit/537.36 (KHTML, like Gecko) Chrome/86.0.4240.111 Safari/537.36" etag="ZXgiRrEsq-Oz9y477SOq" version="13.8.1" type="github">
  <diagram id="RVtrnVz9yHXTAEY7aZFe" name="Page-1">
    <mxGraphModel dx="1550" dy="868" grid="1" gridSize="10" guides="1" tooltips="1" connect="1" arrows="1" fold="1" page="1" pageScale="1" pageWidth="827" pageHeight="1169" math="0" shadow="0">
      <root>
        <mxCell id="0" />
        <mxCell id="1" parent="0" />
        <mxCell id="iOdCZG7J3yRo2Mva3Yki-5" value="" style="group" vertex="1" connectable="0" parent="1">
          <mxGeometry x="80" y="340" width="850" height="770" as="geometry" />
        </mxCell>
        <mxCell id="iOdCZG7J3yRo2Mva3Yki-1" value="" style="rounded=0;whiteSpace=wrap;html=1;" vertex="1" parent="iOdCZG7J3yRo2Mva3Yki-5">
          <mxGeometry width="850" height="770" as="geometry" />
        </mxCell>
        <mxCell id="iOdCZG7J3yRo2Mva3Yki-2" value="" style="rounded=0;whiteSpace=wrap;html=1;" vertex="1" parent="iOdCZG7J3yRo2Mva3Yki-5">
          <mxGeometry x="30" y="45" width="770" height="535" as="geometry" />
        </mxCell>
        <mxCell id="iOdCZG7J3yRo2Mva3Yki-3" value="ipd_toy_test" style="text;html=1;strokeColor=none;fillColor=none;align=center;verticalAlign=middle;whiteSpace=wrap;rounded=0;" vertex="1" parent="iOdCZG7J3yRo2Mva3Yki-5">
          <mxGeometry x="20" width="40" height="20" as="geometry" />
        </mxCell>
        <mxCell id="iOdCZG7J3yRo2Mva3Yki-4" value="m_top_env" style="text;html=1;strokeColor=none;fillColor=none;align=center;verticalAlign=middle;whiteSpace=wrap;rounded=0;" vertex="1" parent="iOdCZG7J3yRo2Mva3Yki-5">
          <mxGeometry x="50" y="45" width="40" height="20" as="geometry" />
        </mxCell>
        <mxCell id="iOdCZG7J3yRo2Mva3Yki-6" value="ips_toy_seq" style="ellipse;whiteSpace=wrap;html=1;" vertex="1" parent="iOdCZG7J3yRo2Mva3Yki-5">
          <mxGeometry x="50" y="600" width="120" height="40" as="geometry" />
        </mxCell>
        <mxCell id="iOdCZG7J3yRo2Mva3Yki-7" value="ipd_resp_toy_seq" style="ellipse;whiteSpace=wrap;html=1;" vertex="1" parent="iOdCZG7J3yRo2Mva3Yki-5">
          <mxGeometry x="50" y="650" width="120" height="40" as="geometry" />
        </mxCell>
        <mxCell id="iOdCZG7J3yRo2Mva3Yki-8" value="hw_dma_toy_seq" style="ellipse;whiteSpace=wrap;html=1;" vertex="1" parent="iOdCZG7J3yRo2Mva3Yki-5">
          <mxGeometry x="50" y="700" width="120" height="40" as="geometry" />
        </mxCell>
        <mxCell id="iOdCZG7J3yRo2Mva3Yki-12" value="V_IPD_IF_T" style="shape=step;perimeter=stepPerimeter;whiteSpace=wrap;html=1;fixedSize=1;" vertex="1" parent="iOdCZG7J3yRo2Mva3Yki-5">
          <mxGeometry x="500" y="670" width="120" height="30" as="geometry" />
        </mxCell>
        <mxCell id="iOdCZG7J3yRo2Mva3Yki-13" value="" style="rounded=0;whiteSpace=wrap;html=1;" vertex="1" parent="iOdCZG7J3yRo2Mva3Yki-5">
          <mxGeometry x="80" y="100" width="180" height="80" as="geometry" />
        </mxCell>
        <mxCell id="iOdCZG7J3yRo2Mva3Yki-14" value="m_dma_toy_env" style="text;html=1;strokeColor=none;fillColor=none;align=center;verticalAlign=middle;whiteSpace=wrap;rounded=0;" vertex="1" parent="iOdCZG7J3yRo2Mva3Yki-5">
          <mxGeometry x="110" y="100" width="40" height="20" as="geometry" />
        </mxCell>
        <mxCell id="iOdCZG7J3yRo2Mva3Yki-15" value="" style="rounded=0;whiteSpace=wrap;html=1;" vertex="1" parent="iOdCZG7J3yRo2Mva3Yki-5">
          <mxGeometry x="80" y="215" width="290" height="105" as="geometry" />
        </mxCell>
        <mxCell id="iOdCZG7J3yRo2Mva3Yki-16" value="m_ips_mem_sequencer" style="text;html=1;strokeColor=none;fillColor=none;align=center;verticalAlign=middle;whiteSpace=wrap;rounded=0;" vertex="1" parent="iOdCZG7J3yRo2Mva3Yki-5">
          <mxGeometry x="130" y="215" width="40" height="20" as="geometry" />
        </mxCell>
        <mxCell id="iOdCZG7J3yRo2Mva3Yki-17" value="V_IPD_IF_T" style="shape=step;perimeter=stepPerimeter;whiteSpace=wrap;html=1;fixedSize=1;" vertex="1" parent="iOdCZG7J3yRo2Mva3Yki-5">
          <mxGeometry x="500" y="460" width="120" height="30" as="geometry" />
        </mxCell>
        <mxCell id="iOdCZG7J3yRo2Mva3Yki-18" value="V_IPS_IF_T" style="shape=step;perimeter=stepPerimeter;whiteSpace=wrap;html=1;fixedSize=1;" vertex="1" parent="iOdCZG7J3yRo2Mva3Yki-5">
          <mxGeometry x="500" y="410" width="120" height="30" as="geometry" />
        </mxCell>
      </root>
    </mxGraphModel>
  </diagram>
</mxfile>
